# xmcd
# Copyright (c) 1998 CDDB Inc.
#
# Track frame offsets:
#	150
#	11328
#	29604
#	49264
#	61157
#	90610
#	109000
#	123322
#	148333
#	178442
#	200003
#	225789
#
# Disc length: 3282 seconds
#
# Revision: 1
# Processed by: cddbd v1.5.1PL2 Copyright (c) Steve Scherf et al.
# Submitted via: AudioCatalyst 2.10full
#
DISCID=a40cd00c
DTITLE=Alex Noir - Simplement...
DYEAR=1900
DGENRE=
TTITLE0=À la gloire du peuple
TTITLE1=Le kid
TTITLE2=Où es-tu
TTITLE3=Révélations
TTITLE4=J'aurais dû mieux savoir
TTITLE5=Il est seul
TTITLE6=Just another Irish - Cajun song
TTITLE7=Tombé dans l'infini
TTITLE8=Politiquement vôtre
TTITLE9=Tu peux avoir confiance en moi
TTITLE10=Me promenader
TTITLE11=How can I keep from singing
EXTD=
EXTT0=
EXTT1=
EXTT2=
EXTT3=
EXTT4=
EXTT5=
EXTT6=
EXTT7=
EXTT8=
EXTT9=
EXTT10=
EXTT11=
PLAYORDER=
